<svg xmlns="http://www.w3.org/2000/svg" viewBox="0 0 160 160" width="160" height="160" shape-rendering="crispEdges">
  <g fill="#555555"> <rect x="100" y="10" width="40" height="10" />
    <rect x="90" y="20" width="60" height="20" />
    
    <rect x="90" y="40" width="10" height="10" />
    <rect x="130" y="40" width="10" height="10" />
    
    <rect x="90" y="50" width="60" height="20" />
    
    <rect x="50" y="70" width="40" height="10" />
    <rect x="100" y="70" width="30" height="10" />

    <rect x="40" y="80" width="90" height="10" />
    <rect x="30" y="90" width="100" height="10" />
    <rect x="20" y="100" width="110" height="10" />
    <rect x="10" y="110" width="120" height="10" />

    <rect x="0" y="100" width="10" height="10" />

    <rect x="40" y="120" width="20" height="20" />
    <rect x="40" y="140" width="30" height="10" /> <rect x="100" y="120" width="20" height="20" />
    <rect x="100" y="140" width="30" height="10" /> </g>
</svg>