<svg width="60" height="60" viewBox="0 0 60 60" fill="none" xmlns="http://www.w3.org/2000/svg">
<g clip-path="url(#clip0_408_8214)">
<path d="M30 60C46.5685 60 60 46.5685 60 30C60 13.4315 46.5685 0 30 0C13.4315 0 0 13.4315 0 30C0 46.5685 13.4315 60 30 60Z" fill="#F0F0F0"/>
<path d="M6.20129 11.7354C3.84477 14.8014 2.06785 18.3352 1.0332 22.1741H16.64L6.20129 11.7354Z" fill="#0052B4"/>
<path d="M58.9659 22.1741C57.9313 18.3353 56.1543 14.8015 53.7978 11.7355L43.3594 22.1741H58.9659Z" fill="#0052B4"/>
<path d="M1.0332 37.8262C2.06797 41.6651 3.84488 45.1989 6.20129 48.2647L16.6396 37.8262H1.0332Z" fill="#0052B4"/>
<path d="M48.2648 6.20168C45.1988 3.84516 41.6651 2.06824 37.8262 1.03348V16.6402L48.2648 6.20168Z" fill="#0052B4"/>
<path d="M11.7354 53.7983C14.8013 56.1548 18.3351 57.9318 22.1739 58.9665V43.36L11.7354 53.7983Z" fill="#0052B4"/>
<path d="M22.1738 1.03348C18.335 2.06824 14.8012 3.84516 11.7354 6.20156L22.1738 16.64V1.03348Z" fill="#0052B4"/>
<path d="M37.8262 58.9665C41.665 57.9318 45.1988 56.1548 48.2646 53.7984L37.8262 43.36V58.9665Z" fill="#0052B4"/>
<path d="M43.3594 37.8262L53.7978 48.2648C56.1543 45.199 57.9313 41.6651 58.9659 37.8262H43.3594Z" fill="#0052B4"/>
<path d="M59.7461 26.087H33.9132H33.9131V0.253945C32.6321 0.0871875 31.3262 0 30 0C28.6736 0 27.3679 0.0871875 26.087 0.253945V26.0868V26.0869H0.253945C0.0871875 27.3679 0 28.6738 0 30C0 31.3264 0.0871875 32.6321 0.253945 33.913H26.0868H26.0869V59.7461C27.3679 59.9128 28.6736 60 30 60C31.3262 60 32.6321 59.9129 33.913 59.7461V33.9132V33.9131H59.7461C59.9128 32.6321 60 31.3264 60 30C60 28.6738 59.9128 27.3679 59.7461 26.087Z" fill="#D80027"/>
<path d="M37.8262 37.8263L51.2132 51.2133C51.8289 50.5978 52.4162 49.9543 52.9766 49.2873L41.5155 37.8261H37.8262V37.8263Z" fill="#D80027"/>
<path d="M22.1743 37.8263H22.174L8.78711 51.2132C9.40258 51.8289 10.0461 52.4162 10.7131 52.9766L22.1743 41.5152V37.8263Z" fill="#D80027"/>
<path d="M22.1739 22.1741V22.1739L8.78688 8.78672C8.17117 9.40219 7.58383 10.0457 7.02344 10.7127L18.4847 22.174H22.1739V22.1741Z" fill="#D80027"/>
<path d="M37.8262 22.1741L51.2133 8.78683C50.5979 8.17113 49.9544 7.58379 49.2873 7.02351L37.8262 18.4848V22.1741Z" fill="#D80027"/>
</g>
<defs>
<clipPath id="clip0_408_8214">
<rect width="60" height="60" fill="white"/>
</clipPath>
</defs>
</svg>
