<svg xmlns="http://www.w3.org/2000/svg" viewBox="0 0 500 500">
  <g transform="translate(250, 250) rotate(5)"> <rect x="-90" y="-100" width="160" height="180" rx="40" fill="#D0D0D0" stroke="#333" stroke-width="10"/>

    <g transform="translate(-60, 0) rotate(30)">
      <rect x="-25" y="0" width="50" height="100" rx="25" fill="#FFF" stroke="#333" stroke-width="10"/>
      <circle cx="0" cy="100" r="30" fill="#AAAAAA" stroke="#333" stroke-width="10"/>
    </g>

    <g transform="translate(-40, 100) rotate(45)">
      <rect x="-30" y="0" width="60" height="110" rx="30" fill="#FFF" stroke="#333" stroke-width="10"/>
      <path d="M-35 100 L35 100 L35 130 Q0 160 -35 130 Z" fill="#AAAAAA" stroke="#333" stroke-width="10" stroke-linejoin="round"/>
    </g>


    <rect x="-80" y="-70" width="160" height="180" rx="60" fill="#FFF" stroke="#333" stroke-width="10"/>

    <g transform="translate(40, 100) rotate(-10)">
      <rect x="-30" y="0" width="60" height="110" rx="30" fill="#FFF" stroke="#333" stroke-width="10"/>
      <path d="M-35 100 L35 100 L35 130 Q0 160 -35 130 Z" fill="#AAAAAA" stroke="#333" stroke-width="10" stroke-linejoin="round"/>
    </g>

    <g transform="translate(60, 0) rotate(-40)">
      <rect x="-25" y="0" width="50" height="100" rx="25" fill="#FFF" stroke="#333" stroke-width="10"/>
      <circle cx="0" cy="100" r="30" fill="#AAAAAA" stroke="#333" stroke-width="10"/>
    </g>

    <g transform="translate(0, -110)">
        <circle cx="0" cy="0" r="100" fill="#FFF" stroke="#333" stroke-width="10"/>
        <ellipse cx="0" cy="10" rx="80" ry="60" fill="#82CCDD" stroke="#333" stroke-width="8"/>
        <line x1="0" y1="-100" x2="0" y2="-130" stroke="#333" stroke-width="10" stroke-linecap="round"/>
        <circle cx="0" cy="-135" r="10" fill="#FF6B6B" stroke="#333" stroke-width="5"/>
    </g>

  </g>
</svg>